<svg width="272" height="76" viewBox="0 0 272 76" fill="none" xmlns="http://www.w3.org/2000/svg">
<rect y="16" width="36" height="36" rx="8" fill="url(#paint0_linear_3201_10896)"/>
<path d="M3 24C3 21.7909 4.79086 20 7 20H17C19.2091 20 21 21.7909 21 24V34C21 36.2091 19.2091 38 17 38H7C4.79086 38 3 36.2091 3 34V24Z" fill="url(#paint1_linear_3201_10896)"/>
<path d="M14 35C14 32.7909 15.7909 31 18 31H29C31.2091 31 33 32.7909 33 35V44C33 46.2091 31.2091 48 29 48H18C15.7909 48 14 46.2091 14 44V35Z" fill="url(#paint2_linear_3201_10896)"/>
<path d="M53.76 43V29.8H48.768V26.2H62.952V29.8H57.84V43H53.76ZM64.0009 43V30.256H67.6489L67.8169 34.408L67.0969 33.616C67.2889 32.928 67.6009 32.312 68.0329 31.768C68.4809 31.224 69.0009 30.792 69.5929 30.472C70.1849 30.152 70.8169 29.992 71.4889 29.992C71.7769 29.992 72.0409 30.016 72.2809 30.064C72.5369 30.112 72.7689 30.168 72.9769 30.232L71.9209 34.48C71.7449 34.368 71.5049 34.28 71.2009 34.216C70.9129 34.136 70.6089 34.096 70.2889 34.096C69.9369 34.096 69.6089 34.16 69.3049 34.288C69.0009 34.4 68.7449 34.568 68.5369 34.792C68.3289 35.016 68.1609 35.28 68.0329 35.584C67.9209 35.888 67.8649 36.232 67.8649 36.616V43H64.0009ZM79.0877 43.216C78.0157 43.216 77.0557 42.936 76.2077 42.376C75.3757 41.8 74.7117 41.016 74.2157 40.024C73.7197 39.016 73.4717 37.88 73.4717 36.616C73.4717 35.32 73.7197 34.176 74.2157 33.184C74.7117 32.192 75.3917 31.416 76.2557 30.856C77.1197 30.28 78.1037 29.992 79.2077 29.992C79.8157 29.992 80.3677 30.08 80.8637 30.256C81.3757 30.432 81.8237 30.68 82.2077 31C82.5917 31.304 82.9197 31.664 83.1917 32.08C83.4637 32.48 83.6637 32.912 83.7917 33.376L82.9997 33.28V30.256H86.8157V43H82.9277V39.928L83.7917 39.904C83.6637 40.352 83.4557 40.776 83.1677 41.176C82.8797 41.576 82.5277 41.928 82.1117 42.232C81.6957 42.536 81.2317 42.776 80.7197 42.952C80.2077 43.128 79.6637 43.216 79.0877 43.216ZM80.1437 39.976C80.7357 39.976 81.2477 39.84 81.6797 39.568C82.1117 39.296 82.4477 38.912 82.6877 38.416C82.9277 37.904 83.0477 37.304 83.0477 36.616C83.0477 35.928 82.9277 35.336 82.6877 34.84C82.4477 34.328 82.1117 33.936 81.6797 33.664C81.2477 33.376 80.7357 33.232 80.1437 33.232C79.5677 33.232 79.0637 33.376 78.6317 33.664C78.2157 33.936 77.8877 34.328 77.6477 34.84C77.4077 35.336 77.2877 35.928 77.2877 36.616C77.2877 37.304 77.4077 37.904 77.6477 38.416C77.8877 38.912 78.2157 39.296 78.6317 39.568C79.0637 39.84 79.5677 39.976 80.1437 39.976ZM90.204 43V30.256H93.852L93.972 32.848L93.204 33.136C93.38 32.56 93.692 32.04 94.14 31.576C94.604 31.096 95.156 30.712 95.796 30.424C96.436 30.136 97.108 29.992 97.812 29.992C98.772 29.992 99.58 30.192 100.236 30.592C100.892 30.976 101.388 31.56 101.724 32.344C102.06 33.112 102.228 34.056 102.228 35.176V43H98.364V35.488C98.364 34.976 98.292 34.552 98.148 34.216C98.004 33.88 97.78 33.632 97.476 33.472C97.188 33.296 96.828 33.216 96.396 33.232C96.06 33.232 95.748 33.288 95.46 33.4C95.172 33.496 94.924 33.648 94.716 33.856C94.508 34.048 94.34 34.272 94.212 34.528C94.1 34.784 94.044 35.064 94.044 35.368V43H92.148C91.7 43 91.316 43 90.996 43C90.676 43 90.412 43 90.204 43ZM109.734 43.24C108.486 43.24 107.382 43.04 106.422 42.64C105.478 42.24 104.726 41.704 104.166 41.032L106.494 39.016C106.99 39.512 107.55 39.88 108.174 40.12C108.798 40.344 109.39 40.456 109.95 40.456C110.174 40.456 110.374 40.432 110.55 40.384C110.726 40.336 110.87 40.272 110.982 40.192C111.11 40.096 111.206 39.992 111.27 39.88C111.334 39.752 111.366 39.608 111.366 39.448C111.366 39.128 111.222 38.88 110.934 38.704C110.79 38.624 110.55 38.528 110.214 38.416C109.878 38.304 109.446 38.176 108.918 38.032C108.166 37.84 107.51 37.616 106.95 37.36C106.406 37.088 105.958 36.776 105.606 36.424C105.286 36.088 105.038 35.72 104.862 35.32C104.686 34.904 104.598 34.44 104.598 33.928C104.598 33.336 104.734 32.8 105.006 32.32C105.294 31.84 105.67 31.424 106.134 31.072C106.614 30.72 107.158 30.456 107.766 30.28C108.39 30.088 109.03 29.992 109.686 29.992C110.39 29.992 111.062 30.072 111.702 30.232C112.342 30.392 112.934 30.616 113.478 30.904C114.038 31.192 114.534 31.536 114.966 31.936L112.95 34.192C112.662 33.92 112.334 33.68 111.966 33.472C111.614 33.248 111.246 33.072 110.862 32.944C110.478 32.816 110.126 32.752 109.806 32.752C109.566 32.752 109.35 32.776 109.158 32.824C108.982 32.856 108.83 32.92 108.702 33.016C108.574 33.096 108.478 33.2 108.414 33.328C108.35 33.44 108.318 33.576 108.318 33.736C108.318 33.896 108.358 34.048 108.438 34.192C108.534 34.336 108.662 34.456 108.822 34.552C108.982 34.648 109.238 34.76 109.59 34.888C109.942 35 110.422 35.144 111.03 35.32C111.782 35.528 112.43 35.76 112.974 36.016C113.518 36.272 113.95 36.576 114.27 36.928C114.526 37.2 114.718 37.52 114.846 37.888C114.974 38.24 115.038 38.624 115.038 39.04C115.038 39.856 114.806 40.584 114.342 41.224C113.894 41.848 113.27 42.344 112.47 42.712C111.67 43.064 110.758 43.24 109.734 43.24ZM122.025 43.216C120.953 43.216 119.993 42.936 119.145 42.376C118.313 41.8 117.649 41.016 117.153 40.024C116.657 39.016 116.409 37.88 116.409 36.616C116.409 35.32 116.657 34.176 117.153 33.184C117.649 32.192 118.329 31.416 119.193 30.856C120.057 30.28 121.041 29.992 122.145 29.992C122.753 29.992 123.305 30.08 123.801 30.256C124.313 30.432 124.761 30.68 125.145 31C125.529 31.304 125.857 31.664 126.129 32.08C126.401 32.48 126.601 32.912 126.729 33.376L125.937 33.28V30.256H129.753V43H125.865V39.928L126.729 39.904C126.601 40.352 126.393 40.776 126.105 41.176C125.817 41.576 125.465 41.928 125.049 42.232C124.633 42.536 124.169 42.776 123.657 42.952C123.145 43.128 122.601 43.216 122.025 43.216ZM123.081 39.976C123.673 39.976 124.185 39.84 124.617 39.568C125.049 39.296 125.385 38.912 125.625 38.416C125.865 37.904 125.985 37.304 125.985 36.616C125.985 35.928 125.865 35.336 125.625 34.84C125.385 34.328 125.049 33.936 124.617 33.664C124.185 33.376 123.673 33.232 123.081 33.232C122.505 33.232 122.001 33.376 121.569 33.664C121.153 33.936 120.825 34.328 120.585 34.84C120.345 35.336 120.225 35.928 120.225 36.616C120.225 37.304 120.345 37.904 120.585 38.416C120.825 38.912 121.153 39.296 121.569 39.568C122.001 39.84 122.505 39.976 123.081 39.976ZM138.734 43.24C137.502 43.24 136.398 42.952 135.422 42.376C134.446 41.8 133.67 41.016 133.094 40.024C132.534 39.016 132.254 37.88 132.254 36.616C132.254 35.352 132.534 34.224 133.094 33.232C133.67 32.224 134.446 31.432 135.422 30.856C136.398 30.28 137.502 29.992 138.734 29.992C139.87 29.992 140.91 30.192 141.854 30.592C142.814 30.992 143.574 31.552 144.134 32.272L142.046 34.768C141.822 34.512 141.558 34.272 141.254 34.048C140.95 33.824 140.614 33.648 140.246 33.52C139.878 33.392 139.494 33.328 139.094 33.328C138.486 33.328 137.95 33.472 137.486 33.76C137.022 34.032 136.662 34.416 136.406 34.912C136.15 35.408 136.022 35.976 136.022 36.616C136.022 37.224 136.15 37.776 136.406 38.272C136.678 38.768 137.046 39.16 137.51 39.448C137.974 39.736 138.502 39.88 139.094 39.88C139.51 39.88 139.894 39.832 140.246 39.736C140.598 39.624 140.918 39.464 141.206 39.256C141.51 39.048 141.79 38.792 142.046 38.488L144.109 41.008C143.566 41.696 142.806 42.24 141.83 42.64C140.87 43.04 139.838 43.24 138.734 43.24ZM147.276 43V27.04H151.116V43H147.276ZM145.02 33.616V30.256H153.588V33.616H145.02ZM155.782 43V25.24H159.55V32.848L158.782 33.136C158.958 32.56 159.27 32.04 159.718 31.576C160.182 31.096 160.734 30.712 161.374 30.424C162.014 30.136 162.686 29.992 163.39 29.992C164.35 29.992 165.158 30.192 165.814 30.592C166.47 30.976 166.966 31.56 167.302 32.344C167.638 33.112 167.806 34.056 167.806 35.176V43H163.942V35.488C163.942 34.976 163.87 34.552 163.726 34.216C163.582 33.88 163.358 33.632 163.054 33.472C162.766 33.296 162.406 33.216 161.974 33.232C161.638 33.232 161.326 33.288 161.038 33.4C160.75 33.496 160.502 33.648 160.294 33.856C160.086 34.048 159.918 34.272 159.79 34.528C159.678 34.784 159.622 35.064 159.622 35.368V43H157.726C157.278 43 156.894 43 156.574 43C156.254 43 155.99 43 155.782 43ZM177.017 43.24C175.689 43.24 174.505 42.952 173.465 42.376C172.441 41.8 171.625 41.016 171.017 40.024C170.425 39.032 170.129 37.896 170.129 36.616C170.129 35.336 170.425 34.2 171.017 33.208C171.625 32.216 172.441 31.432 173.465 30.856C174.505 30.28 175.689 29.992 177.017 29.992C178.345 29.992 179.521 30.28 180.545 30.856C181.585 31.432 182.401 32.216 182.993 33.208C183.585 34.2 183.881 35.336 183.881 36.616C183.881 37.896 183.585 39.032 182.993 40.024C182.401 41.016 181.585 41.8 180.545 42.376C179.521 42.952 178.345 43.24 177.017 43.24ZM177.017 39.928C177.593 39.928 178.105 39.784 178.553 39.496C179.001 39.208 179.353 38.816 179.609 38.32C179.865 37.824 179.985 37.256 179.969 36.616C179.985 35.976 179.865 35.408 179.609 34.912C179.353 34.4 179.001 34 178.553 33.712C178.105 33.424 177.593 33.28 177.017 33.28C176.441 33.28 175.921 33.424 175.457 33.712C175.009 34 174.657 34.4 174.401 34.912C174.145 35.408 174.025 35.976 174.041 36.616C174.025 37.256 174.145 37.824 174.401 38.32C174.657 38.816 175.009 39.208 175.457 39.496C175.921 39.784 176.441 39.928 177.017 39.928ZM190.688 43.24C189.44 43.24 188.336 43.04 187.376 42.64C186.432 42.24 185.68 41.704 185.12 41.032L187.448 39.016C187.944 39.512 188.504 39.88 189.128 40.12C189.752 40.344 190.344 40.456 190.904 40.456C191.128 40.456 191.328 40.432 191.504 40.384C191.68 40.336 191.824 40.272 191.936 40.192C192.064 40.096 192.16 39.992 192.224 39.88C192.288 39.752 192.32 39.608 192.32 39.448C192.32 39.128 192.176 38.88 191.888 38.704C191.744 38.624 191.504 38.528 191.168 38.416C190.832 38.304 190.4 38.176 189.872 38.032C189.12 37.84 188.464 37.616 187.904 37.36C187.36 37.088 186.912 36.776 186.56 36.424C186.24 36.088 185.992 35.72 185.816 35.32C185.64 34.904 185.552 34.44 185.552 33.928C185.552 33.336 185.688 32.8 185.96 32.32C186.248 31.84 186.624 31.424 187.088 31.072C187.568 30.72 188.112 30.456 188.72 30.28C189.344 30.088 189.984 29.992 190.64 29.992C191.344 29.992 192.016 30.072 192.656 30.232C193.296 30.392 193.888 30.616 194.432 30.904C194.992 31.192 195.488 31.536 195.92 31.936L193.904 34.192C193.616 33.92 193.288 33.68 192.92 33.472C192.568 33.248 192.2 33.072 191.816 32.944C191.432 32.816 191.08 32.752 190.76 32.752C190.52 32.752 190.304 32.776 190.112 32.824C189.936 32.856 189.784 32.92 189.656 33.016C189.528 33.096 189.432 33.2 189.368 33.328C189.304 33.44 189.272 33.576 189.272 33.736C189.272 33.896 189.312 34.048 189.392 34.192C189.488 34.336 189.616 34.456 189.776 34.552C189.936 34.648 190.192 34.76 190.544 34.888C190.896 35 191.376 35.144 191.984 35.32C192.736 35.528 193.384 35.76 193.928 36.016C194.472 36.272 194.904 36.576 195.224 36.928C195.48 37.2 195.672 37.52 195.8 37.888C195.928 38.24 195.992 38.624 195.992 39.04C195.992 39.856 195.76 40.584 195.296 41.224C194.848 41.848 194.224 42.344 193.424 42.712C192.624 43.064 191.712 43.24 190.688 43.24ZM199.33 43V27.04H203.17V43H199.33ZM197.074 33.616V30.256H205.642V33.616H197.074Z" fill="black"/>
<defs>
<linearGradient id="paint0_linear_3201_10896" x1="18" y1="16" x2="18" y2="52" gradientUnits="userSpaceOnUse">
<stop stop-color="#41AFFF"/>
<stop offset="1" stop-color="#489CFF"/>
</linearGradient>
<linearGradient id="paint1_linear_3201_10896" x1="3" y1="23" x2="21" y2="38" gradientUnits="userSpaceOnUse">
<stop stop-color="white"/>
<stop offset="1" stop-color="white" stop-opacity="0.6"/>
</linearGradient>
<linearGradient id="paint2_linear_3201_10896" x1="14" y1="33.8333" x2="31.2397" y2="49.89" gradientUnits="userSpaceOnUse">
<stop stop-color="white" stop-opacity="0.37"/>
<stop offset="1" stop-color="white" stop-opacity="0.6"/>
<stop offset="1" stop-color="white" stop-opacity="0"/>
</linearGradient>
</defs>
</svg>
